<svg width="23" height="15" viewBox="0 0 23 15" fill="none" xmlns="http://www.w3.org/2000/svg">
<path d="M8 7.33333C10.2057 7.33333 12 5.68857 12 3.66667C12 1.64476 10.2057 0 8 0C5.79429 0 4 1.64476 4 3.66667C4 5.68857 5.79429 7.33333 8 7.33333ZM8 2.09524C8.94857 2.09524 9.71429 2.79714 9.71429 3.66667C9.71429 4.53619 8.94857 5.23809 8 5.23809C7.05143 5.23809 6.28571 4.53619 6.28571 3.66667C6.28571 2.79714 7.05143 2.09524 8 2.09524ZM8.05714 12.5714H3.16571C4.29714 12.0476 6.25143 11.5238 8 11.5238C8.12571 11.5238 8.26286 11.5343 8.38857 11.5343C8.77714 10.7695 9.45143 10.141 10.2629 9.63809C9.42857 9.5019 8.64 9.42857 8 9.42857C5.32571 9.42857 0 10.6543 0 13.0952V14.6667H8V13.0952C8 12.9171 8.02286 12.739 8.05714 12.5714ZM16.5714 9.95238C14.4686 9.95238 10.2857 11.0105 10.2857 13.0952V14.6667H22.8571V13.0952C22.8571 11.0105 18.6743 9.95238 16.5714 9.95238ZM17.9543 8.04571C18.8229 7.59524 19.4286 6.74667 19.4286 5.7619C19.4286 4.31619 18.1486 3.14286 16.5714 3.14286C14.9943 3.14286 13.7143 4.31619 13.7143 5.7619C13.7143 6.74667 14.32 7.59524 15.1886 8.04571C15.6 8.25524 16.0686 8.38095 16.5714 8.38095C17.0743 8.38095 17.5429 8.25524 17.9543 8.04571Z" fill="#2C3832"/>
</svg>
