<svg width="161" height="161" viewBox="0 0 161 161" fill="none" xmlns="http://www.w3.org/2000/svg">
<g opacity="0.28">
<path fill-rule="evenodd" clip-rule="evenodd" d="M79.3344 33.4334C81.144 33.4334 82.5916 34.9089 82.5916 36.6907V125.166C82.5916 126.975 81.1161 128.423 79.3344 128.423C77.5248 128.423 76.0771 126.947 76.0771 125.166V36.7185C76.0771 34.9089 77.5526 33.4613 79.3344 33.4613V33.4334Z" fill="white" stroke="#231F20" stroke-miterlimit="10"/>
<path d="M79.3344 129.147C77.135 129.147 75.3533 127.365 75.3533 125.166V36.7185C75.3533 34.5192 77.135 32.7374 79.3344 32.7374C81.5337 32.7374 83.3155 34.5192 83.3155 36.7185V125.194C83.3155 127.393 81.5337 129.175 79.3344 129.175V129.147ZM79.3344 34.1294C77.9145 34.1294 76.7731 35.2709 76.7731 36.6907V125.166C76.7731 126.586 77.9145 127.727 79.3344 127.727C80.7542 127.727 81.8956 126.586 81.8956 125.166V36.7185C81.8956 35.2987 80.7542 34.1573 79.3344 34.1573V34.1294Z" fill="#070707" stroke="#231F20" stroke-miterlimit="10"/>
<path fill-rule="evenodd" clip-rule="evenodd" d="M126.857 80.956C126.857 82.7656 125.381 84.2411 123.6 84.2411H35.0969C33.2873 84.2411 31.8396 82.7656 31.8396 80.956C31.8396 79.1464 33.3151 77.6987 35.0969 77.6987H123.572C125.381 77.6987 126.829 79.1742 126.829 80.956H126.857Z" fill="white" stroke="#231F20" stroke-miterlimit="10"/>
<path d="M123.572 84.9371H35.0969C32.8975 84.9371 31.1158 83.1554 31.1158 80.956C31.1158 78.7567 32.8975 76.9749 35.0969 76.9749H123.572C125.771 76.9749 127.553 78.7567 127.553 80.956C127.553 83.1554 125.771 84.9371 123.572 84.9371ZM35.0969 78.3947C33.677 78.3947 32.5356 79.5362 32.5356 80.956C32.5356 82.3758 33.677 83.5173 35.0969 83.5173H123.572C124.992 83.5173 126.133 82.3758 126.133 80.956C126.133 79.5362 124.992 78.3947 123.572 78.3947H35.0969Z" fill="#070707" stroke="#231F20" stroke-miterlimit="10"/>
<path fill-rule="evenodd" clip-rule="evenodd" d="M79.3344 122.27C102.107 122.27 120.677 103.701 120.677 80.9282C120.677 58.1552 102.107 39.586 79.3344 39.586C56.5614 39.586 37.9922 58.1552 37.9922 80.9282C37.9922 103.701 56.5614 122.27 79.3344 122.27Z" fill="white" stroke="#231F20" stroke-miterlimit="10"/>
<path d="M79.3344 122.994C56.1438 122.994 37.2684 104.119 37.2684 80.956C37.2684 57.7933 56.1438 38.89 79.3344 38.89C102.525 38.89 121.4 57.7654 121.4 80.956C121.4 104.147 102.525 122.994 79.3344 122.994ZM79.3344 40.3098C56.9233 40.3098 38.6882 58.5449 38.6882 80.956C38.6882 103.367 56.9233 121.574 79.3344 121.574C101.745 121.574 119.981 103.339 119.981 80.956C119.981 58.5728 101.745 40.3098 79.3344 40.3098V40.3098Z" fill="#070707" stroke="#231F20" stroke-miterlimit="10"/>
<path fill-rule="evenodd" clip-rule="evenodd" d="M107.508 35.3265L129.001 56.8189C130.476 58.2944 132.898 58.2944 134.374 56.8189L156.646 34.547L129.752 7.68158L107.48 29.9534C106.005 31.429 106.005 33.851 107.48 35.3265H107.508Z" fill="white" stroke="#231F20" stroke-miterlimit="10"/>
<path d="M131.673 58.6563C130.476 58.6563 129.335 58.183 128.472 57.3478L106.979 35.8555C106.116 35.0203 105.671 33.8788 105.671 32.6817C105.671 31.4846 106.144 30.3432 106.979 29.4801L129.752 6.67932L157.62 34.547L134.847 57.32C134.012 58.183 132.87 58.6285 131.645 58.6285L131.673 58.6563ZM129.752 8.71163L107.982 30.4824C107.397 31.067 107.091 31.8465 107.091 32.6539C107.091 33.4891 107.397 34.2686 107.982 34.8254L129.474 56.3178C130.643 57.487 132.675 57.487 133.845 56.3178L155.616 34.547L129.752 8.68379V8.71163Z" fill="#070707" stroke="#231F20" stroke-miterlimit="10"/>
<path fill-rule="evenodd" clip-rule="evenodd" d="M134.346 6.59579L157.731 29.9812C159.207 31.4568 160.682 34.2407 158.038 35.0481L155.337 35.8833L128.444 8.99001L129.279 6.28955C130.17 3.33853 132.87 5.12028 134.346 6.59579V6.59579Z" fill="white" stroke="#231F20" stroke-miterlimit="10"/>
<path d="M155.114 36.6628L127.664 9.21276L128.611 6.0947C129.168 4.28511 130.337 4.00671 131.005 4.00671C132.592 4.00671 134.235 5.48222 134.847 6.12254L158.232 29.508C159.346 30.6216 160.515 32.459 160.126 33.9902C159.986 34.5749 159.541 35.3822 158.232 35.7441L155.114 36.6907V36.6628ZM129.251 8.79517L155.532 35.076L157.843 34.38C158.622 34.1294 158.734 33.7397 158.761 33.6283C158.956 32.9045 158.288 31.5682 157.23 30.5102L133.845 7.09694C132.815 6.06686 131.701 5.39871 131.005 5.39871C130.81 5.39871 130.309 5.39871 129.975 6.48446L129.279 8.79517H129.251Z" fill="#070707" stroke="#231F20" stroke-miterlimit="10"/>
<path fill-rule="evenodd" clip-rule="evenodd" d="M53.6939 125.89L32.2015 104.397C30.726 102.922 28.3039 102.922 26.8284 104.397L4.55655 126.669L31.422 153.534L53.6939 131.263C55.1694 129.787 55.1694 127.365 53.6939 125.89Z" fill="white" stroke="#231F20" stroke-miterlimit="10"/>
<path d="M31.422 154.537L3.55432 126.641L26.3273 103.868C28.0255 102.17 31.0044 102.17 32.7026 103.868L54.195 125.361C55.9489 127.114 55.9489 129.982 54.195 131.736L31.422 154.509V154.537ZM5.55879 126.641L31.422 152.504L53.1928 130.734C54.3899 129.537 54.3899 127.56 53.1928 126.363L31.7004 104.87C30.5311 103.701 28.4988 103.701 27.3295 104.87L5.55879 126.641V126.641Z" fill="#070707" stroke="#231F20" stroke-miterlimit="10"/>
<path fill-rule="evenodd" clip-rule="evenodd" d="M26.8563 154.62L3.47082 131.235C1.99531 129.759 0.519797 126.975 3.16458 126.168L5.86505 125.333L32.7305 152.198L31.9231 154.899C31.0323 157.85 28.3318 156.068 26.8563 154.592V154.62Z" fill="white" stroke="#231F20" stroke-miterlimit="10"/>
<path d="M30.1971 157.237C28.6102 157.237 26.9676 155.762 26.3552 155.121L2.9697 131.736C1.8561 130.622 0.686829 128.785 1.07659 127.282C1.21579 126.697 1.66122 125.89 2.9697 125.5L6.08776 124.553L33.5657 152.031L32.6191 155.149C32.0623 156.959 30.8931 157.237 30.2249 157.237H30.1971ZM5.67016 126.14L3.35945 126.836C2.5521 127.087 2.46858 127.476 2.44074 127.588C2.24586 128.312 2.91402 129.648 3.97193 130.706L27.3574 154.091C28.3875 155.121 29.5011 155.79 30.1971 155.79C30.3919 155.79 30.8931 155.79 31.2271 154.704L31.9231 152.393L5.67016 126.14Z" fill="#070707" stroke="#231F20" stroke-miterlimit="10"/>
<path fill-rule="evenodd" clip-rule="evenodd" d="M125.883 107.515L104.39 129.008C102.915 130.483 102.915 132.905 104.39 134.381L126.662 156.653L153.528 129.787L131.256 107.515C129.78 106.04 127.358 106.04 125.883 107.515Z" fill="white" stroke="#231F20" stroke-miterlimit="10"/>
<path d="M126.634 157.655L103.861 134.882C102.107 133.128 102.107 130.26 103.861 128.506L125.354 107.014C127.052 105.316 130.031 105.316 131.729 107.014L154.502 129.787L126.634 157.655ZM128.555 107.125C127.72 107.125 126.94 107.46 126.384 108.016L104.891 129.509C103.694 130.706 103.694 132.682 104.891 133.88L126.662 155.65L152.525 129.787L130.755 108.016C130.17 107.432 129.39 107.125 128.583 107.125H128.555Z" fill="#070707" stroke="#231F20" stroke-miterlimit="10"/>
<path fill-rule="evenodd" clip-rule="evenodd" d="M154.613 134.353L131.228 157.738C129.752 159.214 126.968 160.689 126.161 158.045L125.354 155.344L152.219 128.479L154.92 129.314C157.871 130.205 156.089 132.905 154.613 134.381V134.353Z" fill="white" stroke="#231F20" stroke-miterlimit="10"/>
<path d="M127.859 160.216C127.191 160.216 125.994 159.965 125.465 158.267L124.518 155.149L151.996 127.671L155.114 128.618C156.506 129.035 156.98 129.843 157.147 130.427C157.592 132.153 155.866 134.102 155.114 134.854L131.729 158.239C130.782 159.186 129.251 160.216 127.887 160.216H127.859ZM126.133 155.539L126.829 157.85C127.08 158.685 127.525 158.796 127.859 158.796C128.611 158.796 129.78 158.156 130.699 157.237L154.084 133.852C155.254 132.682 155.922 131.457 155.755 130.789C155.671 130.455 155.309 130.177 154.697 129.982L152.386 129.286L126.105 155.567L126.133 155.539Z" fill="#070707" stroke="#231F20" stroke-miterlimit="10"/>
<path fill-rule="evenodd" clip-rule="evenodd" d="M35.3196 53.7008L56.8119 32.2085C58.2874 30.733 58.2874 28.3109 56.8119 26.8354L34.5679 4.56354L7.67462 31.4568L29.9465 53.7287C31.422 55.2042 33.8441 55.2042 35.3196 53.7287V53.7008Z" fill="white" stroke="#231F20" stroke-miterlimit="10"/>
<path d="M32.647 55.5383C31.4498 55.5383 30.3084 55.065 29.4454 54.2298L6.67239 31.4568L34.5679 3.56128L57.3409 26.3343C58.2039 27.1695 58.6494 28.3109 58.6494 29.508C58.6494 30.7051 58.1761 31.8466 57.3409 32.7096L35.8485 54.2019C35.0133 55.065 33.8719 55.5104 32.6748 55.5104L32.647 55.5383ZM8.67686 31.4568L30.4476 53.2275C31.6169 54.3968 33.6492 54.3968 34.8185 53.2275L56.3108 31.7352C56.8955 31.1506 57.2017 30.371 57.2017 29.5637C57.2017 28.7563 56.8955 27.949 56.3108 27.3922L34.5679 5.56575L8.67686 31.4568Z" fill="#070707" stroke="#231F20" stroke-miterlimit="10"/>
<path fill-rule="evenodd" clip-rule="evenodd" d="M6.58889 26.8632L29.9744 3.47775C31.4499 2.00224 34.2338 0.526724 35.0412 3.17151L35.8764 5.87197L8.98312 32.7653L6.28265 31.9579C3.33163 31.067 5.11338 28.3666 6.58889 26.8911V26.8632Z" fill="white" stroke="#231F20" stroke-miterlimit="10"/>
<path d="M9.17799 33.5448L6.05993 32.5982C4.66794 32.1806 4.19466 31.3733 4.02762 30.7886C3.61002 29.0626 5.30825 27.1138 6.05993 26.3621L29.4732 2.97663C30.4198 2.03007 31.951 1 33.3151 1C33.9833 1 35.1804 1.25056 35.7094 2.97663L36.6559 6.09469L9.17799 33.5448ZM33.343 2.41983C32.5913 2.41983 31.422 3.06015 30.5033 3.97886L7.09 27.3643C5.92073 28.5336 5.25257 29.7585 5.41961 30.4267C5.50313 30.7608 5.86505 31.0392 6.47753 31.2341L8.78823 31.9301L35.069 5.67709L34.373 3.36639C34.1225 2.53119 33.677 2.41983 33.343 2.41983V2.41983Z" fill="#070707" stroke="#231F20" stroke-miterlimit="10"/>
</g>
</svg>
